<svg width="25" height="12" viewBox="0 0 25 12" fill="none" xmlns="http://www.w3.org/2000/svg">
<path opacity="0.35" d="M3.33887 0.501953L20.0049 0.501953C21.2015 0.501953 22.1719 1.47233 22.1719 2.66895V8.66895C22.1717 9.86541 21.2014 10.835 20.0049 10.835L3.33887 10.835C2.14236 10.835 1.17205 9.86541 1.17188 8.66895L1.17188 2.66895L1.18262 2.44727C1.29347 1.35461 2.21696 0.501953 3.33887 0.501953Z" stroke="#242424"/>
<path opacity="0.4" d="M23.6719 3.66797V7.66797C24.4766 7.32919 24.9999 6.5411 24.9999 5.66797C24.9999 4.79484 24.4766 4.00675 23.6719 3.66797Z" fill="#242424"/>
<path d="M2.67188 3.33529C2.67188 2.59891 3.26883 2.00195 4.00521 2.00195L19.3385 2.00195C20.0749 2.00195 20.6719 2.59891 20.6719 3.33529V8.00195C20.6719 8.73833 20.0749 9.33529 19.3385 9.33529H4.00521C3.26883 9.33529 2.67188 8.73833 2.67188 8.00195L2.67188 3.33529Z" fill="#242424"/>
</svg>
