<svg width="20" height="21" viewBox="0 0 20 21" fill="none" xmlns="http://www.w3.org/2000/svg">
<g clip-path="url(#clip0_2330_786)">
<path d="M8.46426 9.51498C8.81043 8.97616 9.0081 8.33333 8.99667 7.64413C8.96604 5.79984 7.4312 4.33423 5.58661 4.33423H0.436783C0.195575 4.33423 0 4.5298 0 4.77101V16.0961C0 16.3373 0.195575 16.5329 0.436783 16.5329H6.18934C8.32444 16.5329 10.0931 14.8216 10.1018 12.6865C10.1072 11.378 9.45827 10.2179 8.46426 9.51498ZM2.25926 6.59348H5.63058C6.24113 6.59348 6.73789 7.09021 6.73789 7.7008C6.73789 8.31134 6.24117 8.80811 5.63058 8.80811H2.25926V6.59348ZM6.23951 14.2736H2.25926V11.0674H5.63058H6.23947C7.12342 11.0674 7.84259 11.7865 7.84259 12.6705C7.84259 13.5544 7.12346 14.2736 6.23951 14.2736Z" fill="#0067FF"/>
<path d="M20.0008 11.8835C20.0008 9.24642 17.9224 7.10107 15.3676 7.10107C12.8128 7.10107 10.7344 9.24647 10.7344 11.8835C10.7344 14.5205 12.8128 16.6659 15.3676 16.6659C16.9178 16.6659 18.3582 15.8712 19.2208 14.5401C19.3283 14.3741 19.426 14.2007 19.5127 14.022C19.5756 13.8922 19.4802 13.7412 19.3359 13.7409L17.0584 13.7352C17.008 13.7351 16.9602 13.7557 16.9241 13.7908C16.494 14.209 15.9668 14.4066 15.3676 14.4066C14.2357 14.4066 13.2869 13.5601 13.0507 12.4315H19.5474C19.7978 12.4315 20.0008 12.2285 20.0008 11.9781V11.8835ZM15.3676 9.36033C16.1966 9.36033 16.9272 9.81461 17.3519 10.5009H13.3833C13.808 9.81461 14.5386 9.36033 15.3676 9.36033Z" fill="#0067FF"/>
<path d="M17.2925 6.53973H13.1831C12.9914 6.53973 12.8359 6.38429 12.8359 6.19255V5.16163C12.8359 4.96989 12.9914 4.81445 13.1831 4.81445H17.2925C17.4843 4.81445 17.6397 4.96989 17.6397 5.16163V6.19255C17.6397 6.38433 17.4843 6.53973 17.2925 6.53973Z" fill="#0067FF"/>
</g>
<defs>
<clipPath id="clip0_2330_786">
<rect width="20" height="20" fill="white" transform="translate(0 0.5)"/>
</clipPath>
</defs>
</svg>
