<svg width="25" height="24" viewBox="0 0 25 24" fill="none" xmlns="http://www.w3.org/2000/svg">
<path d="M15.5007 5.56012C15.7934 5.26733 15.7934 4.79271 15.5007 4.49996C15.2079 4.20725 14.7334 4.20718 14.4406 4.49981L13.2507 5.689V2.75C13.2507 2.33579 12.9149 2 12.5007 2C12.0865 2 11.7507 2.33579 11.7507 2.75V5.689L10.5608 4.49981C10.268 4.20718 9.79346 4.20725 9.50074 4.49996C9.208 4.79271 9.20796 5.26733 9.50067 5.56011L12.5007 8.561L15.5007 5.56012Z" fill="black" fill-opacity="0.7"/>
<path d="M9.50067 18.4398C9.20796 18.7326 9.208 19.2073 9.50074 19.5C9.79346 19.7927 10.268 19.7928 10.5608 19.5002L11.7507 18.311V21.25C11.7507 21.6642 12.0865 22 12.5007 22C12.9149 22 13.2507 21.6642 13.2507 21.25V18.311L14.4406 19.5002C14.7334 19.7928 15.2079 19.7927 15.5007 19.5C15.7934 19.2073 15.7934 18.7326 15.5007 18.4398L12.5007 15.439L9.50067 18.4398Z" fill="black" fill-opacity="0.7"/>
<path d="M4.5 13.75C4.5 13.3358 4.83579 13 5.25 13H19.75C20.1642 13 20.5 13.3358 20.5 13.75C20.5 14.1642 20.1642 14.5 19.75 14.5H5.25C4.83579 14.5 4.5 14.1642 4.5 13.75Z" fill="black" fill-opacity="0.7"/>
<path d="M4.5 10.25C4.5 9.83579 4.83579 9.5 5.25 9.5H19.75C20.1642 9.5 20.5 9.83579 20.5 10.25C20.5 10.6642 20.1642 11 19.75 11H5.25C4.83579 11 4.5 10.6642 4.5 10.25Z" fill="black" fill-opacity="0.7"/>
</svg>
