<svg width="16" height="16" viewBox="0 0 16 16" fill="none" xmlns="http://www.w3.org/2000/svg">
<path d="M8 1C4.14016 1 1 4.14016 1 7.99992C1 11.8597 4.14016 14.9998 8 14.9998C11.8598 14.9998 15 11.8597 15 7.99992C15 4.14016 11.8598 1 8 1ZM12.5616 4.30133C13.3475 5.26865 13.8313 6.4896 13.8715 7.82055C12.4158 7.51919 11.0977 7.55455 9.93404 7.78271C9.72334 7.28998 9.50523 6.82056 9.28509 6.37691C10.5523 5.83098 11.6556 5.1337 12.5616 4.30133ZM11.7731 3.4999C10.8737 4.32081 9.83147 4.92863 8.76427 5.37737C7.98097 3.94497 7.23154 2.86631 6.775 2.25332C7.17032 2.1691 7.57995 2.12392 8 2.12392C9.4354 2.12392 10.7515 2.64197 11.7731 3.4999ZM5.63984 2.62039C5.98459 3.06711 6.80572 4.18564 7.68777 5.77704C5.47095 6.49927 3.31992 6.62095 2.28629 6.63226C2.71713 4.83249 3.97749 3.35259 5.63984 2.62039ZM2.13006 7.75903C2.14115 7.75903 2.15187 7.75911 2.16318 7.75911C2.8774 7.75911 4.18594 7.71108 5.72646 7.43017C6.60536 7.2699 7.43879 7.05418 8.22081 6.78684C8.42439 7.19258 8.62677 7.62056 8.82301 8.06916C7.72801 8.42169 6.8046 8.92896 6.07315 9.43262C4.84658 10.2773 3.9873 11.2144 3.51811 11.7938C2.64939 10.7693 2.12392 9.44521 2.12392 7.99992C2.12392 7.91915 2.12677 7.83905 2.13006 7.75903ZM4.328 12.5824C4.73194 12.0738 5.55412 11.1481 6.74346 10.3358C7.55171 9.78374 8.3879 9.37358 9.24875 9.10436C9.74822 10.399 10.1746 11.8294 10.4289 13.3483C9.68798 13.6861 8.86602 13.8759 8 13.8759C6.61143 13.8759 5.33474 13.3908 4.328 12.5824ZM11.4629 12.7431C11.2009 11.3482 10.8101 10.0365 10.3584 8.83785C11.4695 8.65038 12.618 8.68904 13.7975 8.95398C13.5431 10.5042 12.6805 11.8517 11.4629 12.7431Z" fill="black"/>
</svg>
