<svg width="20" height="21" viewBox="0 0 20 21" fill="none" xmlns="http://www.w3.org/2000/svg">
<g clip-path="url(#clip0_2330_891)">
<path d="M14.0419 0.5H5.95811C2.67279 0.5 0 3.17279 0 6.45811V14.5419C0 17.8272 2.67279 20.5 5.95811 20.5H14.0419C17.3272 20.5 20 17.8272 20 14.5419V6.45811C20 3.17279 17.3272 0.5 14.0419 0.5ZM17.988 14.5419C17.988 16.7213 16.2213 18.488 14.0419 18.488H5.95811C3.77875 18.488 2.012 16.7213 2.012 14.5419V6.45811C2.012 4.27871 3.77875 2.512 5.95811 2.512H14.0419C16.2213 2.512 17.988 4.27871 17.988 6.45811V14.5419Z" fill="url(#paint0_linear_2330_891)"/>
<path d="M9.99888 5.32715C7.14665 5.32715 4.82617 7.64762 4.82617 10.4998C4.82617 13.352 7.14665 15.6725 9.99888 15.6725C12.8511 15.6725 15.1716 13.3521 15.1716 10.4998C15.1716 7.64759 12.8511 5.32715 9.99888 5.32715ZM9.99888 13.6606C8.25326 13.6606 6.83817 12.2455 6.83817 10.4999C6.83817 8.75423 8.25329 7.33915 9.99888 7.33915C11.7445 7.33915 13.1596 8.75423 13.1596 10.4999C13.1596 12.2455 11.7445 13.6606 9.99888 13.6606Z" fill="url(#paint1_linear_2330_891)"/>
<path d="M15.1828 6.60544C15.8674 6.60544 16.4223 6.0505 16.4223 5.36595C16.4223 4.6814 15.8674 4.12646 15.1828 4.12646C14.4983 4.12646 13.9434 4.6814 13.9434 5.36595C13.9434 6.0505 14.4983 6.60544 15.1828 6.60544Z" fill="url(#paint2_linear_2330_891)"/>
</g>
<defs>
<linearGradient id="paint0_linear_2330_891" x1="10" y1="20.4418" x2="10" y2="0.655343" gradientUnits="userSpaceOnUse">
<stop stop-color="#E09B3D"/>
<stop offset="0.3" stop-color="#C74C4D"/>
<stop offset="0.6" stop-color="#C21975"/>
<stop offset="1" stop-color="#7024C4"/>
</linearGradient>
<linearGradient id="paint1_linear_2330_891" x1="9.99888" y1="20.4416" x2="9.99888" y2="0.655205" gradientUnits="userSpaceOnUse">
<stop stop-color="#E09B3D"/>
<stop offset="0.3" stop-color="#C74C4D"/>
<stop offset="0.6" stop-color="#C21975"/>
<stop offset="1" stop-color="#7024C4"/>
</linearGradient>
<linearGradient id="paint2_linear_2330_891" x1="15.1828" y1="20.4416" x2="15.1828" y2="0.655173" gradientUnits="userSpaceOnUse">
<stop stop-color="#E09B3D"/>
<stop offset="0.3" stop-color="#C74C4D"/>
<stop offset="0.6" stop-color="#C21975"/>
<stop offset="1" stop-color="#7024C4"/>
</linearGradient>
<clipPath id="clip0_2330_891">
<rect width="20" height="20" fill="white" transform="translate(0 0.5)"/>
</clipPath>
</defs>
</svg>
