<svg width="20" height="21" viewBox="0 0 20 21" fill="none" xmlns="http://www.w3.org/2000/svg">
<g clip-path="url(#clip0_2330_905)">
<path d="M17.2727 0.5H2.72727C1.22104 0.5 0 1.72104 0 3.22727V17.7727C0 19.279 1.22104 20.5 2.72727 20.5H17.2727C18.779 20.5 20 19.279 20 17.7727V3.22727C20 1.72104 18.779 0.5 17.2727 0.5Z" fill="#0077B5"/>
<path d="M7.20401 5.95455C7.20401 6.29167 7.10404 6.62123 6.91675 6.90154C6.72945 7.18185 6.46323 7.40033 6.15177 7.52934C5.8403 7.65835 5.49758 7.69211 5.16693 7.62634C4.83628 7.56057 4.53256 7.39823 4.29417 7.15984C4.05579 6.92146 3.89345 6.61774 3.82768 6.28709C3.7619 5.95644 3.79566 5.61371 3.92467 5.30224C4.05369 4.99078 4.27216 4.72457 4.55247 4.53727C4.83278 4.34997 5.16234 4.25 5.49947 4.25C5.95154 4.25 6.3851 4.42959 6.70476 4.74925C7.02443 5.06891 7.20401 5.50247 7.20401 5.95455Z" fill="white"/>
<path d="M6.81865 8.79553V16.3262C6.81894 16.3818 6.80826 16.4368 6.78721 16.4882C6.76616 16.5397 6.73515 16.5864 6.69597 16.6258C6.65679 16.6652 6.61022 16.6964 6.55892 16.7178C6.50762 16.7391 6.45261 16.7501 6.39705 16.7501H4.60046C4.54491 16.7502 4.48987 16.7394 4.43852 16.7182C4.38716 16.697 4.3405 16.6659 4.30122 16.6266C4.26193 16.5873 4.2308 16.5407 4.20961 16.4893C4.18842 16.4379 4.17759 16.3829 4.17774 16.3273V8.79553C4.17774 8.68342 4.22227 8.57589 4.30155 8.49662C4.38083 8.41734 4.48835 8.3728 4.60046 8.3728H6.39705C6.50897 8.3731 6.6162 8.41777 6.69523 8.49702C6.77426 8.57626 6.81865 8.68361 6.81865 8.79553Z" fill="white"/>
<path d="M16.209 12.716V16.3614C16.2091 16.4125 16.1992 16.4631 16.1797 16.5103C16.1602 16.5576 16.1316 16.6005 16.0955 16.6366C16.0593 16.6727 16.0164 16.7013 15.9692 16.7208C15.922 16.7403 15.8714 16.7502 15.8203 16.7501H13.8885C13.8374 16.7502 13.7868 16.7403 13.7396 16.7208C13.6924 16.7013 13.6495 16.6727 13.6134 16.6366C13.5772 16.6005 13.5486 16.5576 13.5291 16.5103C13.5097 16.4631 13.4997 16.4125 13.4999 16.3614V12.8285C13.4999 12.3012 13.6544 10.5194 12.1214 10.5194C10.934 10.5194 10.6919 11.7387 10.6442 12.2864V16.3614C10.6442 16.4635 10.604 16.5615 10.5324 16.6343C10.4607 16.707 10.3633 16.7486 10.2612 16.7501H8.39531C8.34433 16.7501 8.29385 16.74 8.24676 16.7205C8.19967 16.7009 8.15691 16.6723 8.12091 16.6362C8.08491 16.6001 8.05639 16.5572 8.03698 16.5101C8.01758 16.4629 8.00766 16.4124 8.00781 16.3614V8.76258C8.00766 8.71159 8.01758 8.66108 8.03698 8.61394C8.05639 8.56679 8.08491 8.52394 8.12091 8.48784C8.15691 8.45173 8.19967 8.42309 8.24676 8.40354C8.29385 8.384 8.34433 8.37394 8.39531 8.37394H10.2612C10.3643 8.37394 10.4631 8.41488 10.536 8.48777C10.6089 8.56065 10.6499 8.6595 10.6499 8.76258V9.41939C11.0908 8.75803 11.7442 8.2478 13.1385 8.2478C16.2271 8.2478 16.209 11.1319 16.209 12.716Z" fill="white"/>
</g>
<defs>
<clipPath id="clip0_2330_905">
<rect width="20" height="20" fill="white" transform="translate(0 0.5)"/>
</clipPath>
</defs>
</svg>
