<svg width="14" height="15" viewBox="0 0 14 15" fill="none" xmlns="http://www.w3.org/2000/svg">
<g clip-path="url(#clip0_2252_2869)">
<path fill-rule="evenodd" clip-rule="evenodd" d="M8.78885 1.30091C7.485 1.26819 6.5163 1.26819 5.21245 1.30091L5.16255 1.30216C4.1563 1.32738 3.32839 1.34813 2.66108 1.4642C1.95284 1.58739 1.35983 1.82731 0.857556 2.33086C0.357921 2.83177 0.118686 3.41544 -0.00250942 4.11247C-0.116249 4.76662 -0.133459 5.57387 -0.154294 6.55087L-0.155364 6.60112C-0.169569 7.26642 -0.169564 7.61967 -0.155359 8.28492L-0.154284 8.33522C-0.133454 9.31222 -0.116239 10.1195 -0.0024994 10.7736C0.118696 11.4706 0.357931 12.0543 0.857566 12.5552C1.35984 13.0588 1.95285 13.2987 2.66109 13.4219C3.3284 13.5379 4.1563 13.5587 5.16255 13.5839L5.21245 13.5852C6.5163 13.6179 7.485 13.6179 8.78885 13.5852L8.83875 13.5839C9.84495 13.5587 10.6729 13.5379 11.3402 13.4219C12.0485 13.2987 12.6415 13.0588 13.1438 12.5552C13.6434 12.0543 13.8826 11.4706 14.0038 10.7736C14.1176 10.1194 14.1347 9.31222 14.1556 8.33522L14.1566 8.28492C14.1708 7.61967 14.1708 7.26642 14.1566 6.60112L14.1556 6.55087C14.1347 5.57387 14.1176 4.76662 14.0038 4.11247C13.8826 3.41544 13.6434 2.83178 13.1438 2.33086C12.8615 2.04789 12.5506 1.84817 12.2066 1.70563C12.1544 1.67706 12.0982 1.65552 12.0398 1.64178C11.8199 1.56426 11.5871 1.50714 11.3402 1.46421C10.6729 1.34814 9.845 1.32738 8.83875 1.30216L8.78885 1.30091ZM12.7872 5.34322C12.7743 5.07287 12.7678 4.93772 12.6699 4.88377C12.572 4.82977 12.4517 4.89797 12.211 5.03437L9.38715 6.63437C8.52075 7.12527 7.788 7.44302 7.0005 7.44302C6.21305 7.44302 5.4803 7.12527 4.6139 6.63437L1.79029 5.03447C1.54961 4.89812 1.42927 4.82992 1.33137 4.88392C1.23348 4.93787 1.22703 5.07302 1.21414 5.34337C1.19676 5.70772 1.18734 6.13012 1.17668 6.62952C1.16287 7.27587 1.16288 7.61022 1.17668 8.25657C1.19889 9.29657 1.21573 10.0026 1.3102 10.5459C1.39916 11.0576 1.54758 11.3615 1.80146 11.6161C2.05272 11.868 2.36083 12.0189 2.88969 12.1109C3.44848 12.2081 4.1773 12.2281 5.24595 12.2549C6.52745 12.2871 7.47385 12.2871 8.7554 12.2549C9.824 12.2281 10.5529 12.2081 11.1117 12.1109C11.6405 12.0189 11.9486 11.868 12.1999 11.6161C12.4537 11.3615 12.6021 11.0576 12.6911 10.5459C12.7856 10.0026 12.8024 9.29657 12.8246 8.25657C12.8384 7.61022 12.8384 7.27587 12.8246 6.62952C12.814 6.13002 12.8046 5.70762 12.7872 5.34322Z" fill="#5C5C5C"/>
</g>
<defs>
<clipPath id="clip0_2252_2869">
<rect width="16" height="16" fill="white" transform="translate(-1 -0.557617)"/>
</clipPath>
</defs>
</svg>
