<svg width="18" height="11" viewBox="0 0 18 11" fill="none" xmlns="http://www.w3.org/2000/svg">
<path d="M2.33789 7.00293C2.89018 7.00293 3.33789 7.45064 3.33789 8.00293V10.0029C3.33771 10.5551 2.89007 11.0029 2.33789 11.0029H1.33789C0.785715 11.0029 0.338067 10.5551 0.337891 10.0029L0.337891 8.00293C0.337891 7.45064 0.785606 7.00293 1.33789 7.00293H2.33789ZM7.00488 5.00293C7.55701 5.00311 8.00488 5.45076 8.00488 6.00293V10.0029C8.00471 10.555 7.5569 11.0027 7.00488 11.0029H6.00488C5.45271 11.0029 5.00506 10.5551 5.00488 10.0029L5.00488 6.00293C5.00488 5.45064 5.4526 5.00293 6.00488 5.00293H7.00488ZM11.6709 2.66895C12.2231 2.66895 12.6707 3.11681 12.6709 3.66895V10.0029C12.6707 10.5551 12.2231 11.0029 11.6709 11.0029H10.6709C10.1189 11.0027 9.67107 10.555 9.6709 10.0029V3.66895C9.67107 3.11692 10.1189 2.66913 10.6709 2.66895H11.6709ZM16.3379 0.335937C16.8902 0.335937 17.3379 0.783653 17.3379 1.33594V10.0029C17.3377 10.5551 16.8901 11.0029 16.3379 11.0029H15.3379C14.7857 11.0029 14.3381 10.5551 14.3379 10.0029V1.33594C14.3379 0.783653 14.7856 0.335937 15.3379 0.335937L16.3379 0.335937Z" fill="#242424"/>
</svg>
