<svg width="16" height="16" viewBox="0 0 16 16" fill="none" xmlns="http://www.w3.org/2000/svg">
<path d="M9.3667 3.99992C10.0179 4.12696 10.6163 4.44542 11.0854 4.91454C11.5545 5.38366 11.873 5.9821 12 6.63325M9.3667 1.33325C10.7195 1.48354 11.9811 2.08937 12.9442 3.05126C13.9073 4.01315 14.5147 5.27393 14.6667 6.62659M12.3333 13.9999C6.62639 13.9999 2 9.37353 2 3.66659C2 3.40911 2.00942 3.15382 2.02793 2.90107C2.04917 2.611 2.05979 2.46596 2.1358 2.33394C2.19876 2.22459 2.31033 2.12089 2.42399 2.06609C2.56121 1.99992 2.72125 1.99992 3.04134 1.99992H4.91954C5.18872 1.99992 5.32331 1.99992 5.43868 2.04422C5.5406 2.08335 5.63134 2.14691 5.70295 2.22932C5.78401 2.32261 5.83 2.44909 5.92199 2.70206L6.6994 4.83995C6.80643 5.13427 6.85994 5.28143 6.85086 5.42105C6.84285 5.54416 6.80083 5.66264 6.72949 5.76329C6.64857 5.87744 6.5143 5.95801 6.24575 6.11913L5.33333 6.66659C6.1346 8.4325 7.56676 9.86652 9.33333 10.6666L9.88079 9.75417C10.0419 9.48562 10.1225 9.35135 10.2366 9.27043C10.3373 9.19909 10.4558 9.15707 10.5789 9.14906C10.7185 9.13998 10.8656 9.19349 11.16 9.30051L13.2979 10.0779C13.5508 10.1699 13.6773 10.2159 13.7706 10.297C13.853 10.3686 13.9166 10.4593 13.9557 10.5612C14 10.6766 14 10.8112 14 11.0804V12.9586C14 13.2787 14 13.4387 13.9338 13.5759C13.879 13.6896 13.7753 13.8012 13.666 13.8641C13.534 13.9401 13.3889 13.9508 13.0989 13.972C12.8461 13.9905 12.5908 13.9999 12.3333 13.9999Z" stroke="#2F2F2F" stroke-width="1.1" stroke-linecap="round" stroke-linejoin="round"/>
</svg>
