<svg width="15" height="16" viewBox="0 0 15 16" fill="none" xmlns="http://www.w3.org/2000/svg">
<path d="M11.7346 8.76745L8.40317 7.54101L7.17674 4.20705C7.10411 4.00974 6.97271 3.83946 6.80026 3.71918C6.62781 3.5989 6.42262 3.5344 6.21237 3.5344C6.00212 3.5344 5.79693 3.5989 5.62448 3.71918C5.45204 3.83946 5.32063 4.00974 5.24801 4.20705L4.02028 7.53714L0.686317 8.76358C0.489008 8.8362 0.318726 8.96761 0.198445 9.14005C0.0781634 9.3125 0.0136719 9.51769 0.0136719 9.72794C0.0136719 9.93819 0.0781634 10.1434 0.198445 10.3158C0.318726 10.4883 0.489008 10.6197 0.686317 10.6923L4.01576 11.9265L5.2422 15.2585C5.31483 15.4558 5.44623 15.6261 5.61867 15.7464C5.79112 15.8667 5.99631 15.9312 6.20656 15.9312C6.41681 15.9312 6.622 15.8667 6.79445 15.7464C6.9669 15.6261 7.0983 15.4558 7.17093 15.2585L8.39736 11.9271L11.7313 10.7007C11.9286 10.6281 12.0989 10.4967 12.2192 10.3242C12.3395 10.1518 12.404 9.94658 12.404 9.73633C12.404 9.52608 12.3395 9.32089 12.2192 9.14844C12.0989 8.976 11.9286 8.8446 11.7313 8.77197L11.7346 8.76745ZM8.04299 10.9582C7.90344 11.0095 7.77671 11.0904 7.6716 11.1956C7.56648 11.3007 7.48551 11.4274 7.43429 11.5669L6.20785 14.8886L4.984 11.5644C4.93274 11.4256 4.85202 11.2995 4.74739 11.1949C4.64275 11.0902 4.5167 11.0095 4.37788 10.9582L1.05618 9.73181L4.37788 8.50538C4.5167 8.45412 4.64275 8.3734 4.74739 8.26876C4.85202 8.16413 4.93274 8.03807 4.984 7.89926L6.21044 4.57756L7.43687 7.89926C7.48809 8.03881 7.56907 8.16554 7.67418 8.27065C7.77929 8.37576 7.90602 8.45674 8.04557 8.50796L11.3673 9.7344L8.04299 10.9582ZM8.27601 3.0187C8.27601 2.88174 8.33041 2.7504 8.42726 2.65355C8.5241 2.55671 8.65545 2.50231 8.7924 2.50231H9.82519V1.46952C9.82519 1.33256 9.87959 1.20122 9.97644 1.10437C10.0733 1.00753 10.2046 0.953125 10.3416 0.953125C10.4785 0.953125 10.6099 1.00753 10.7067 1.10437C10.8036 1.20122 10.858 1.33256 10.858 1.46952V2.50231H11.8908C12.0277 2.50231 12.1591 2.55671 12.2559 2.65355C12.3528 2.7504 12.4072 2.88174 12.4072 3.0187C12.4072 3.15565 12.3528 3.287 12.2559 3.38384C12.1591 3.48069 12.0277 3.53509 11.8908 3.53509H10.858V4.56788C10.858 4.70483 10.8036 4.83618 10.7067 4.93302C10.6099 5.02987 10.4785 5.08427 10.3416 5.08427C10.2046 5.08427 10.0733 5.02987 9.97644 4.93302C9.87959 4.83618 9.82519 4.70483 9.82519 4.56788V3.53509H8.7924C8.65545 3.53509 8.5241 3.48069 8.42726 3.38384C8.33041 3.287 8.27601 3.15565 8.27601 3.0187ZM14.9891 6.11706C14.9891 6.25402 14.9347 6.38536 14.8379 6.4822C14.741 6.57905 14.6097 6.63345 14.4727 6.63345H13.9563V7.14985C13.9563 7.2868 13.9019 7.41815 13.8051 7.51499C13.7082 7.61183 13.5769 7.66624 13.4399 7.66624C13.303 7.66624 13.1716 7.61183 13.0748 7.51499C12.978 7.41815 12.9235 7.2868 12.9235 7.14985V6.63345H12.4072C12.2702 6.63345 12.1389 6.57905 12.042 6.4822C11.9452 6.38536 11.8908 6.25402 11.8908 6.11706C11.8908 5.9801 11.9452 5.84876 12.042 5.75191C12.1389 5.65507 12.2702 5.60067 12.4072 5.60067H12.9235V5.08427C12.9235 4.94732 12.978 4.81597 13.0748 4.71913C13.1716 4.62228 13.303 4.56788 13.4399 4.56788C13.5769 4.56788 13.7082 4.62228 13.8051 4.71913C13.9019 4.81597 13.9563 4.94732 13.9563 5.08427V5.60067H14.4727C14.6097 5.60067 14.741 5.65507 14.8379 5.75191C14.9347 5.84876 14.9891 5.9801 14.9891 6.11706Z" fill="#5C5C5C"/>
</svg>
