<svg width="16" height="11" viewBox="0 0 16 11" fill="none" xmlns="http://www.w3.org/2000/svg">
<path d="M5.79199 8.40039C7.06756 7.32151 8.93634 7.32151 10.2119 8.40039C10.2759 8.45841 10.3137 8.54055 10.3154 8.62695C10.3171 8.71337 10.2824 8.79688 10.2207 8.85742L8.22363 10.873C8.16509 10.9322 8.08521 10.9658 8.00195 10.9658C7.9187 10.9658 7.83881 10.9322 7.78027 10.873L5.78223 8.85742C5.72066 8.79685 5.68674 8.71329 5.68848 8.62695C5.6903 8.54056 5.72793 8.45836 5.79199 8.40039ZM3.12695 5.71094C5.87504 3.15479 10.1307 3.15493 12.8789 5.71094C12.9409 5.77081 12.9766 5.8533 12.9775 5.93945C12.9784 6.02569 12.9446 6.10873 12.8838 6.16992L11.7295 7.33691C11.6105 7.45602 11.418 7.45869 11.2959 7.34277C10.3934 6.52556 9.21944 6.07317 8.00195 6.07324C6.78527 6.07375 5.61183 6.52611 4.70996 7.34277C4.58795 7.45841 4.39625 7.45576 4.27734 7.33691L3.12305 6.16992C3.06211 6.10882 3.02751 6.02575 3.02832 5.93945C3.02923 5.85329 3.06496 5.7708 3.12695 5.71094ZM0.461914 3.0293C4.67703 -1.00999 11.327 -1.01016 15.542 3.0293C15.6029 3.08927 15.6371 3.17134 15.6377 3.25684C15.6382 3.34242 15.6043 3.42463 15.5439 3.48535L14.3887 4.65234C14.2696 4.77206 14.076 4.77315 13.9551 4.65527C12.3491 3.12853 10.2178 2.27744 8.00195 2.27734C5.78585 2.27735 3.654 3.12838 2.04785 4.65527C1.92705 4.77318 1.73425 4.77203 1.61523 4.65234L0.458984 3.48535C0.39872 3.42459 0.364671 3.34242 0.365234 3.25684C0.365823 3.17129 0.400879 3.08924 0.461914 3.0293Z" fill="#242424"/>
</svg>
